solid Untitled-5d6969f6
facet normal 0.0 0.0 -1.0
  outer loop
    vertex 50.000000000000014 349.99999999999983 -50.0
    vertex -50.00000000000007 250.00000000000006 -50.0
    vertex -50.00000000000007 349.99999999999983 -50.0
  endloop
endfacet
facet normal 0.0 0.0 -1.0
  outer loop
    vertex -50.00000000000007 250.00000000000006 -50.0
    vertex 50.000000000000014 349.99999999999983 -50.0
    vertex 50.000000000000014 250.00000000000006 -50.0
  endloop
endfacet
facet normal -1.0 0.0 0.0
  outer loop
    vertex -50.00000000000007 349.99999999999983 50.0
    vertex -50.00000000000007 250.00000000000006 -50.0
    vertex -50.00000000000007 250.00000000000006 50.0
  endloop
endfacet
facet normal -1.0 0.0 0.0
  outer loop
    vertex -50.00000000000007 250.00000000000006 -50.0
    vertex -50.00000000000007 349.99999999999983 50.0
    vertex -50.00000000000007 349.99999999999983 -50.0
  endloop
endfacet
facet normal 1.0 -0.0 -0.0
  outer loop
    vertex 50.000000000000014 349.99999999999983 -50.0
    vertex 50.000000000000014 250.00000000000006 50.0
    vertex 50.000000000000014 250.00000000000006 -50.0
  endloop
endfacet
facet normal 1.0 -0.0 -0.0
  outer loop
    vertex 50.000000000000014 250.00000000000006 50.0
    vertex 50.000000000000014 349.99999999999983 -50.0
    vertex 50.000000000000014 349.99999999999983 50.0
  endloop
endfacet
facet normal -0.0 -0.0 1.0
  outer loop
    vertex 50.000000000000014 250.00000000000006 50.0
    vertex -50.00000000000007 349.99999999999983 50.0
    vertex -50.00000000000007 250.00000000000006 50.0
  endloop
endfacet
facet normal -0.0 -0.0 1.0
  outer loop
    vertex -50.00000000000007 349.99999999999983 50.0
    vertex 50.000000000000014 250.00000000000006 50.0
    vertex 50.000000000000014 349.99999999999983 50.0
  endloop
endfacet
facet normal -0.0 1.0 -0.0
  outer loop
    vertex -50.00000000000007 349.99999999999983 50.0
    vertex 50.000000000000014 349.99999999999983 -50.0
    vertex -50.00000000000007 349.99999999999983 -50.0
  endloop
endfacet
facet normal -0.0 1.0 -0.0
  outer loop
    vertex 50.000000000000014 349.99999999999983 -50.0
    vertex -50.00000000000007 349.99999999999983 50.0
    vertex 50.000000000000014 349.99999999999983 50.0
  endloop
endfacet
facet normal 0.0 -1.0 0.0
  outer loop
    vertex 50.000000000000014 250.00000000000006 50.0
    vertex -50.00000000000007 250.00000000000006 -50.0
    vertex 50.000000000000014 250.00000000000006 -50.0
  endloop
endfacet
facet normal 0.0 -1.0 0.0
  outer loop
    vertex -50.00000000000007 250.00000000000006 -50.0
    vertex 50.000000000000014 250.00000000000006 50.0
    vertex -50.00000000000007 250.00000000000006 50.0
  endloop
endfacet
endsolid Untitled-5d6969f6
